<svg width="48" height="48" viewBox="0 0 48 48" fill="none" xmlns="http://www.w3.org/2000/svg">
<path d="M28.8366 10.9799C27.8846 10.804 27.0102 11.4116 26.8289 12.3409C26.6477 13.2703 27.2571 14.1777 28.1833 14.3595C30.9719 14.9032 33.125 17.0617 33.6708 19.8598V19.8618C33.8261 20.6672 34.5352 21.2528 35.3518 21.2528C35.4614 21.2528 35.5709 21.2428 35.6825 21.2228C36.6087 21.037 37.2182 20.1316 37.0369 19.2002C36.2223 15.0211 33.0055 11.7933 28.8366 10.9799Z" fill="white"/>
<path d="M28.7122 4.01586C28.266 3.9519 27.8179 4.08381 27.4613 4.36762C27.0948 4.65542 26.8658 5.07114 26.816 5.53682C26.7104 6.47817 27.3896 7.32958 28.3298 7.43551C34.8131 8.15901 39.8523 13.2095 40.5813 19.7131C40.6789 20.5845 41.4099 21.242 42.2823 21.242C42.3481 21.242 42.4118 21.238 42.4775 21.23C42.9337 21.1801 43.34 20.9542 43.6268 20.5945C43.9116 20.2347 44.0411 19.787 43.9893 19.3293C43.0811 11.2149 36.8009 4.91724 28.7122 4.01586Z" fill="white"/>
<path fill-rule="evenodd" clip-rule="evenodd" d="M22.0635 25.9448C30.0416 33.9207 31.8515 24.6934 36.9313 29.7696C41.8286 34.6655 44.6432 35.6464 38.4385 41.8494C37.6613 42.474 32.7232 49.9885 15.3692 32.6393C-1.98696 15.288 5.52317 10.3449 6.14794 9.5679C12.3677 3.34769 13.3317 6.17877 18.229 11.0747C23.3087 16.153 14.0853 17.9688 22.0635 25.9448Z" fill="white"/>
</svg>
