<?xml version="1.0" standalone="no"?>
<!DOCTYPE svg PUBLIC "-//W3C//DTD SVG 20010904//EN"
 "http://www.w3.org/TR/2001/REC-SVG-20010904/DTD/svg10.dtd">
<svg version="1.0" xmlns="http://www.w3.org/2000/svg"
 width="205.000000pt" height="205.000000pt" viewBox="0 0 205.000000 205.000000"
 preserveAspectRatio="xMidYMid meet">
<metadata>
Created by potrace 1.11, written by Peter Selinger 2001-2013
</metadata>
<g transform="translate(0.000000,205.000000) scale(0.100000,-0.100000)"
fill="#000000" stroke="none">
<path d="M507 1775 c-19 -7 -52 -22 -73 -34 -33 -20 -46 -22 -103 -16 -36 4
-69 9 -72 11 -4 2 -17 -4 -29 -14 -21 -17 -21 -17 41 -36 l63 -18 -30 -21
c-29 -20 -115 -105 -144 -143 -49 -62 -101 -182 -117 -271 -9 -50 -9 -167 0
-223 31 -194 172 -384 348 -468 46 -22 109 -45 139 -52 84 -18 85 -20 85 -84
l0 -56 -83 0 c-86 0 -122 -10 -122 -35 0 -39 21 -43 246 -41 195 1 218 3 228
19 8 12 8 22 0 35 -9 14 -28 18 -103 20 l-91 3 0 59 c0 55 2 60 23 61 98 3
215 38 302 90 51 31 60 41 60 65 0 39 -32 43 -82 10 -163 -108 -383 -119 -568
-27 -132 65 -234 181 -287 327 -32 88 -32 272 0 366 42 120 130 232 235 300
l49 31 52 -16 c56 -18 106 -22 106 -9 0 5 -17 21 -37 36 l-38 28 38 40 c20 21
37 45 37 52 0 20 -32 25 -73 11z"/>
<path d="M859 1228 c-1 -20 -1 -191 0 -211 1 -13 7 -17 24 -15 21 3 22 8 25
112 2 81 -1 112 -10 118 -19 12 -38 10 -39 -4z"/>
<path d="M1976 1231 c-2 -3 -3 -55 -2 -116 1 -96 3 -110 19 -113 15 -3 17 8
17 116 0 100 -2 119 -15 119 -9 0 -17 -3 -19 -6z"/>
<path d="M270 1213 c0 -22 51 -197 60 -207 5 -5 19 -6 33 -2 19 4 26 16 37 60
15 61 26 64 36 8 10 -54 22 -72 49 -72 25 0 36 25 70 156 19 78 19 74 -10 74
-21 0 -26 -8 -40 -52 -8 -28 -15 -58 -15 -67 0 -26 -16 2 -30 51 -23 87 -60
90 -80 6 -18 -75 -26 -87 -34 -47 -18 91 -25 107 -51 107 -15 0 -25 -6 -25
-15z"/>
<path d="M1050 1194 c0 -32 -1 -33 -33 -27 -75 12 -120 -85 -66 -143 21 -22
30 -24 84 -22 l60 4 3 111 3 111 -26 0 c-22 0 -25 -5 -25 -34z m-5 -93 c9 -28
-5 -51 -31 -51 -29 0 -46 28 -33 52 13 24 56 23 64 -1z"/>
<path d="M1196 1222 c-12 -12 10 -32 35 -32 l29 0 0 -96 c0 -86 2 -95 18 -92
14 3 17 17 20 96 l3 92 35 0 c31 0 34 2 24 19 -9 17 -20 20 -85 19 -41 -1 -77
-4 -79 -6z"/>
<path d="M588 1146 c-58 -53 -21 -146 57 -146 107 0 116 152 9 167 -32 4 -44
1 -66 -21z m87 -45 c9 -28 -5 -51 -30 -51 -29 0 -39 14 -31 46 8 30 51 34 61
5z"/>
<path d="M750 1084 c0 -79 1 -81 24 -81 21 0 24 4 24 36 0 58 1 61 26 72 16 8
23 19 22 34 -1 21 -6 23 -48 22 l-48 -2 0 -81z"/>
<path d="M1357 1155 c-1 -5 -3 -41 -2 -80 1 -58 4 -70 18 -73 18 -4 21 8 18
61 -2 35 15 67 34 67 8 0 15 9 15 19 0 16 -7 19 -40 18 -22 -1 -41 -6 -43 -12z"/>
<path d="M1466 1145 c-35 -32 -36 -86 -1 -121 21 -21 32 -24 82 -22 32 1 60 5
63 9 3 4 4 40 2 80 l-3 74 -58 2 c-50 2 -62 -1 -85 -22z m102 -64 c3 -26 -1
-33 -24 -41 -29 -11 -47 -2 -65 32 -8 14 -4 24 16 44 24 24 28 25 48 11 13 -8
23 -27 25 -46z"/>
<path d="M1630 1158 c0 -25 55 -150 68 -155 7 -3 18 -1 24 5 8 8 68 145 68
156 0 1 -9 2 -19 3 -14 1 -23 -11 -36 -45 -25 -67 -30 -69 -50 -15 -17 45 -30
62 -47 63 -5 0 -8 -6 -8 -12z"/>
<path d="M1815 1145 c-23 -22 -30 -46 -26 -85 3 -26 50 -60 84 -60 44 0 82 27
66 46 -10 13 -15 12 -35 -1 -17 -11 -30 -12 -49 -5 -38 15 -30 28 18 28 84 -1
84 -1 79 32 -9 64 -91 92 -137 45z m93 -33 c2 -8 -11 -12 -37 -12 -43 0 -53
12 -24 28 19 11 55 1 61 -16z"/>
</g>
</svg>
